<svg width="65" height="64" viewBox="0 0 65 64" fill="none" xmlns="http://www.w3.org/2000/svg">
<path d="M50.7775 56V13.3333C50.7775 10.3878 48.3897 8 45.4442 8H18.7775C15.832 8 13.4442 10.3878 13.4442 13.3333V56M50.7775 56L56.1108 55.9999M50.7775 56H37.4442M13.4442 56L8.11084 55.9999M13.4442 56H26.7775M24.1108 18.6666H26.7775M24.1108 29.3333H26.7775M37.4442 18.6666H40.1108M37.4442 29.3333H40.1108M26.7775 56V42.6666C26.7775 41.1939 27.9714 39.9999 29.4442 39.9999H34.7775C36.2503 39.9999 37.4442 41.1939 37.4442 42.6666V56M26.7775 56H37.4442" stroke="black" stroke-opacity="0.6" stroke-linecap="round" stroke-linejoin="round"/>
</svg>
