<svg width="65" height="64" viewBox="0 0 65 64" fill="none" xmlns="http://www.w3.org/2000/svg">
<path d="M8.11084 16L16.1108 18.6667M16.1108 18.6667L8.22463 42.3253C8.15666 42.5292 8.22645 42.7548 8.40166 42.8793C13.1034 46.2208 19.4835 46.15 24.114 42.6667M16.1108 18.6667L24.111 42.6667M16.1108 18.6667L32.1108 13.3333M48.1108 18.6667L56.1108 16M48.1108 18.6667L40.2246 42.3253C40.1567 42.5292 40.2264 42.7548 40.4017 42.8793C45.1034 46.2208 51.4835 46.15 56.114 42.6667M48.1108 18.6667L56.111 42.6667M48.1108 18.6667L32.1108 13.3333M32.1108 8V13.3333M32.1108 56V13.3333M32.1108 56H24.1108M32.1108 56H40.1108" stroke="black" stroke-opacity="0.6" stroke-linecap="round" stroke-linejoin="round"/>
</svg>
