<svg width="831" height="747" viewBox="0 0 831 747" fill="none" xmlns="http://www.w3.org/2000/svg">
<rect opacity="0.655172" x="-0.64129" y="0.351247" width="386.135" height="644.432" rx="9.5" transform="matrix(-0.313582 0.949561 -0.968998 -0.247068 754.539 270.788)" stroke="#EEE8E3" stroke-opacity="0.4"/>
<rect opacity="0.689655" x="-0.669969" y="0.320514" width="388.553" height="642.318" rx="9.5" transform="matrix(-0.380981 0.924583 -0.958956 -0.283554 763.676 285.964)" stroke="#EEE8E3" stroke-opacity="0.4"/>
<rect opacity="0.724138" x="-0.696457" y="0.28769" width="391.89" height="639.369" rx="9.5" transform="matrix(-0.445468 0.895298 -0.947445 -0.319918 771.765 301.374)" stroke="#EEE8E3" stroke-opacity="0.4"/>
<rect opacity="0.758621" x="-0.720487" y="0.253006" width="396.084" height="635.606" rx="9.5" transform="matrix(-0.506561 0.862204 -0.934412 -0.356193 778.782 316.971)" stroke="#EEE8E3" stroke-opacity="0.4"/>
<rect opacity="0.793103" x="-0.741844" y="0.21672" width="401.066" height="631.055" rx="9.5" transform="matrix(-0.563897 0.825845 -0.919792 -0.392406 784.712 332.716)" stroke="#EEE8E3" stroke-opacity="0.4"/>
<rect opacity="0.827586" x="-0.760371" y="0.179102" width="406.751" height="625.751" rx="9.5" transform="matrix(-0.617235 0.786779 -0.903507 -0.428574 789.539 348.566)" stroke="#EEE8E3" stroke-opacity="0.4"/>
<rect opacity="0.862069" x="-0.775955" y="0.140421" width="413.051" height="619.732" rx="9.5" transform="matrix(-0.666447 0.745553 -0.885463 -0.46471 793.251 364.479)" stroke="#EEE8E3" stroke-opacity="0.4"/>
<rect opacity="0.896552" x="-0.788531" y="0.100934" width="419.87" height="613.045" rx="9.5" transform="matrix(-0.711505 0.702681 -0.865556 -0.500812 795.84 380.411)" stroke="#EEE8E3" stroke-opacity="0.4"/>
</svg>
