<svg width="294" height="346" viewBox="0 0 294 346" fill="none" xmlns="http://www.w3.org/2000/svg">
<rect opacity="0.655172" x="-0.6509" y="0.362978" width="190.227" height="268.313" rx="9.5" transform="matrix(-0.326156 0.945316 -0.975644 -0.21936 261.787 112.77)" stroke="#EEE8E3" stroke-opacity="0.4"/>
<rect opacity="0.689655" x="-0.673754" y="0.330564" width="191.614" height="266.876" rx="9.5" transform="matrix(-0.382648 0.923894 -0.96486 -0.262766 265.205 119.816)" stroke="#EEE8E3" stroke-opacity="0.4"/>
<rect opacity="0.724138" x="-0.694454" y="0.296681" width="193.165" height="265.247" rx="9.5" transform="matrix(-0.436921 0.8995 -0.951987 -0.306137 268.169 127)" stroke="#EEE8E3" stroke-opacity="0.4"/>
<rect opacity="0.758621" x="-0.712873" y="0.261485" width="194.861" height="263.439" rx="9.5" transform="matrix(-0.488785 0.872404 -0.936961 -0.349433 270.67 134.301)" stroke="#EEE8E3" stroke-opacity="0.4"/>
<rect opacity="0.793103" x="-0.728903" y="0.22514" width="196.679" height="261.47" rx="9.5" transform="matrix(-0.538098 0.842882 -0.919708 -0.392603 272.704 141.7)" stroke="#EEE8E3" stroke-opacity="0.4"/>
<rect opacity="0.827586" x="-0.742455" y="0.187813" width="198.596" height="259.358" rx="9.5" transform="matrix(-0.58476 0.811206 -0.90015 -0.43558 274.266 149.177)" stroke="#EEE8E3" stroke-opacity="0.4"/>
<rect opacity="0.862069" x="-0.753458" y="0.149677" width="200.588" height="257.122" rx="9.5" transform="matrix(-0.628711 0.777639 -0.878204 -0.478285 275.351 156.713)" stroke="#EEE8E3" stroke-opacity="0.4"/>
<rect opacity="0.896552" x="-0.761712" y="0.110943" width="202.623" height="254.78" rx="9.5" transform="matrix(-0.669707 0.742625 -0.853716 -0.520739 275.96 164.285)" stroke="#EEE8E3" stroke-opacity="0.4"/>
</svg>
