<svg width="625" height="10" viewBox="0 0 625 10" fill="none" xmlns="http://www.w3.org/2000/svg">
<mask id="path-1-inside-1_1822_415" fill="white">
<path d="M0 5C0 2.23858 2.23858 0 5 0H620C622.761 0 625 2.23858 625 5V10H0V5Z"/>
</mask>
<path d="M-1 5C-1 1.68629 1.68629 -1 5 -1H620C623.314 -1 626 1.68629 626 5H624C624 2.79086 622.209 1 620 1H5C2.79086 1 1 2.79086 1 5H-1ZM625 10H0H625ZM-1 10V5C-1 1.68629 1.68629 -1 5 -1V1C2.79086 1 1 2.79086 1 5V10H-1ZM620 -1C623.314 -1 626 1.68629 626 5V10H624V5C624 2.79086 622.209 1 620 1V-1Z" fill="black" mask="url(#path-1-inside-1_1822_415)"/>
</svg>
