<svg width="155" height="11" viewBox="0 0 155 11" fill="none" xmlns="http://www.w3.org/2000/svg">
<mask id="path-1-inside-1_1772_837" fill="white">
<path d="M0 5.56812C0 2.80669 2.23858 0.568115 5 0.568115H150C152.761 0.568115 155 2.80669 155 5.56812V10.5681H0V5.56812Z"/>
</mask>
<path d="M-1 5.56812C-1 2.25441 1.68629 -0.431885 5 -0.431885H150C153.314 -0.431885 156 2.25441 156 5.56812H154C154 3.35898 152.209 1.56812 150 1.56812H5C2.79086 1.56812 1 3.35898 1 5.56812H-1ZM155 10.5681H0H155ZM-1 10.5681V5.56812C-1 2.25441 1.68629 -0.431885 5 -0.431885V1.56812C2.79086 1.56812 1 3.35898 1 5.56812V10.5681H-1ZM150 -0.431885C153.314 -0.431885 156 2.25441 156 5.56812V10.5681H154V5.56812C154 3.35898 152.209 1.56812 150 1.56812V-0.431885Z" fill="black" mask="url(#path-1-inside-1_1772_837)"/>
</svg>
