<svg width="1280" height="10" viewBox="0 0 1280 10" fill="none" xmlns="http://www.w3.org/2000/svg">
<mask id="path-1-inside-1_1822_461" fill="white">
<path d="M0 5C0 2.23858 2.23858 0 5 0H1275C1277.76 0 1280 2.23858 1280 5V10H0V5Z"/>
</mask>
<path d="M-1 5C-1 1.68629 1.68629 -1 5 -1H1275C1278.31 -1 1281 1.68629 1281 5H1279C1279 2.79086 1277.21 1 1275 1H5C2.79086 1 1 2.79086 1 5H-1ZM1280 10H0H1280ZM-1 10V5C-1 1.68629 1.68629 -1 5 -1V1C2.79086 1 1 2.79086 1 5V10H-1ZM1275 -1C1278.31 -1 1281 1.68629 1281 5V10H1279V5C1279 2.79086 1277.21 1 1275 1V-1Z" fill="black" mask="url(#path-1-inside-1_1822_461)"/>
</svg>
